# xmcd
#
# Track frame offsets:
#	150
#	16859
#	37198
#	57067
#	70357
#	81268
#	92687
#	106300
#	122341
#	138231
#	151021
#	168362
#	184579
#	202743
#	221129
#	233126
#	247499
#	261247
#	274944
#	288453
#	296898
#	313687
#	331902
#	345721
#
# Disc length: 4897 seconds
#
# Revision: 0
# Processed by: cddbd v1.5.1PL0 Copyright (c) Steve Scherf et al.
# Submitted via: audiograbber 1.83.01
#
DISCID=67131f18
DTITLE=Steve Earle - Collection 1
DYEAR=1900
DGENRE=Country
TTITLE0=Before They Make
TTITLE1=Bible And A Gun
TTITLE2=Copper Head Road
TTITLE3=Devil's Right Hand
TTITLE4=Dirty Old Town
TTITLE5=Guitar Town
TTITLE6=High Fashion Queen
TTITLE7=Hillbilly Highway
TTITLE8=I Feel Alright
TTITLE9=I Remember You
TTITLE10=Jerusalem
TTITLE11=John Walker's Blues
TTITLE12=Johnny Come Lately
TTITLE13=Johnny Too Bad
TTITLE14=Nowhere Road
TTITLE15=Regular Guy
TTITLE16=San Antonio Girl
TTITLE17=Six Days On The Road
TTITLE18=The Galway Girl
TTITLE19=Wherever I Go
TTITLE20=Poison lovers
TTITLE21=The Rain Came Down
TTITLE22=Some Dreams
TTITLE23=Justice In Ontario
EXTD=
EXTT0=
EXTT1=
EXTT2=
EXTT3=
EXTT4=
EXTT5=
EXTT6=
EXTT7=
EXTT8=
EXTT9=
EXTT10=
EXTT11=
EXTT12=
EXTT13=
EXTT14=
EXTT15=
EXTT16=
EXTT17=
EXTT18=
EXTT19=
EXTT20=
EXTT21=
EXTT22=
EXTT23=
PLAYORDER=
